<?xml version="1.0" standalone="no"?>
<!DOCTYPE svg PUBLIC "-//W3C//DTD SVG 1.1//EN" "http://www.w3.org/Graphics/SVG/1.1/DTD/svg11.dtd">
<!--Generator: Xara Designer (www.xara.com), SVG filter version: 4.0.0.1-->
<svg stroke-width="0.501" stroke-linejoin="bevel" fill-rule="evenodd" xmlns:xlink="http://www.w3.org/1999/xlink" xmlns="http://www.w3.org/2000/svg" version="1.1" overflow="visible" width="318.75pt" height="401.25pt" viewBox="0 0 318.75 401.25">
 <defs>
  <marker id="DefaultArrow2" markerUnits="strokeWidth" viewBox="0 0 1 1" markerWidth="1" markerHeight="1" overflow="visible" orient="auto">
   <!-- REF_ARROW_STRAIGHT (-2) -->
   <g transform="scale(0.0092592592)">
    <!-- 1/108 -->
    <path d="M -9 54 L -9 -54 L 117 0 z"/>
   </g>
  </marker>
  <marker id="DefaultArrow3" markerUnits="strokeWidth" viewBox="0 0 1 1" markerWidth="1" markerHeight="1" overflow="visible" orient="auto">
   <!-- REF_ARROW_ANGLED -->
   <g transform="scale(0.0092592592)">
    <path d="M -27 54 L -9 0 L -27 -54 L 135 0 z"/>
   </g>
  </marker>
  <marker id="DefaultArrow4" markerUnits="strokeWidth" viewBox="0 0 1 1" markerWidth="1" markerHeight="1" overflow="visible" orient="auto">
   <!-- REF_ARROW_ROUNDED -->
   <g transform="scale(0.0092592592)">
    <path d="M -9,0 L -9,-45 C -9,-51.708 2.808,-56.580 9,-54 L 117,-9 C 120.916,-7.369 126.000,-4.242 126,0 C 126,4.242 120.916,7.369 117,9 L 9,54 C 2.808,56.580 -9,51.708 -9,45 z"/>
   </g>
  </marker>
  <marker id="DefaultArrow5" markerUnits="strokeWidth" viewBox="0 0 1 1" markerWidth="1" markerHeight="1" overflow="visible" orient="auto">
   <!-- REF_ARROW_SPOT -->
   <g transform="scale(0.0092592592)">
    <path d="M -54, 0 C -54,29.807 -29.807,54 0,54 C 29.807,54 54,29.807 54,0 C 54,-29.807 29.807,-54 0,-54 C -29.807,-54 -54,-29.807 -54,0 z"/>
   </g>
  </marker>
  <marker id="DefaultArrow6" markerUnits="strokeWidth" viewBox="0 0 1 1" markerWidth="1" markerHeight="1" overflow="visible" orient="auto">
   <!-- REF_ARROW_DIAMOND -->
   <g transform="scale(0.0092592592)">
    <path d="M -63,0 L 0,63 L 63,0 L 0,-63 z"/>
   </g>
  </marker>
  <marker id="DefaultArrow7" markerUnits="strokeWidth" viewBox="0 0 1 1" markerWidth="1" markerHeight="1" overflow="visible" orient="auto">
   <!-- REF_ARROW_FEATHER -->
   <g transform="scale(0.0092592592)">
    <path d="M 18,-54 L 108,-54 L 63,0 L 108,54 L 18, 54 L -36,0 z"/>
   </g>
  </marker>
  <marker id="DefaultArrow8" markerUnits="strokeWidth" viewBox="0 0 1 1" markerWidth="1" markerHeight="1" overflow="visible" orient="auto">
   <!-- REF_ARROW_FEATHER2 -->
   <g transform="scale(0.0092592592)">
    <path d="M -36,0 L 18,-54 L 54,-54 L 18,-18 L 27,-18 L 63,-54 L 99,-54 L 63,-18 L 72,-18 L 108,-54 L 144,-54 L 90,0 L 144,54 L 108,54 L 72,18 L 63,18 L 99,54 L 63,54 L 27,18 L 18,18 L 54,54 L 18,54 z"/>
   </g>
  </marker>
  <marker id="DefaultArrow9" markerUnits="strokeWidth" viewBox="0 0 1 1" markerWidth="1" markerHeight="1" overflow="visible" orient="auto">
   <!-- REF_ARROW_HOLLOWDIAMOND -->
   <g transform="scale(0.0092592592)">
    <path d="M 0,45 L -45,0 L 0, -45 L 45, 0 z M 0, 63 L-63, 0 L 0, -63 L 63, 0 z"/>
   </g>
  </marker>
  <filter id="StainedFilter">
   <feBlend mode="multiply" in2="BackgroundImage" in="SourceGraphic" result="blend"/>
   <feComposite in="blend" in2="SourceAlpha" operator="in" result="comp"/>
  </filter>
  <filter id="BleachFilter">
   <feBlend mode="screen" in2="BackgroundImage" in="SourceGraphic" result="blend"/>
   <feComposite in="blend" in2="SourceAlpha" operator="in" result="comp"/>
  </filter>
  <filter id="InvertTransparencyBitmapFilter">
   <feComponentTransfer>
    <feFuncR type="gamma" amplitude="1.055" exponent=".416666666" offset="-0.055"/>
    <feFuncG type="gamma" amplitude="1.055" exponent=".416666666" offset="-0.055"/>
    <feFuncB type="gamma" amplitude="1.055" exponent=".416666666" offset="-0.055"/>
   </feComponentTransfer>
   <feComponentTransfer>
    <feFuncR type="linear" slope="-1" intercept="1"/>
    <feFuncG type="linear" slope="-1" intercept="1"/>
    <feFuncB type="linear" slope="-1" intercept="1"/>
    <feFuncA type="linear" slope="1" intercept="0"/>
   </feComponentTransfer>
   <feComponentTransfer>
    <feFuncR type="gamma" amplitude="1" exponent="2.4" offset="0"/>
    <feFuncG type="gamma" amplitude="1" exponent="2.4" offset="0"/>
    <feFuncB type="gamma" amplitude="1" exponent="2.4" offset="0"/>
   </feComponentTransfer>
  </filter>
 </defs>
 <g id="Document" fill="none" stroke="black" font-family="Times New Roman" font-size="16" transform="scale(1 -1)">
  <g id="Spread" transform="translate(0 -401.25)">
   <g id="Layer 1"/>
   <g id="logo_kid">
    <path d="M 110.464,2.092 C 87.488,3.058 79.406,7.916 71.373,15.438 C 66.014,20.433 63.185,29.593 62.892,41.271 C 63.218,51.845 63.572,61.503 64.433,70.57 C 65.473,77.371 65.769,84.424 65.463,91.681 L 64.756,91.486 L 61.93,119.138 C 49.173,118.331 50.157,127.803 49.043,128.252 C 50.394,135.271 24.152,127.046 22.961,135.167 C 13.637,134.943 13.272,165.907 11.653,174.758 C 12.267,218.734 11.704,206.409 16.657,217.933 C 13.442,225.853 27.784,220.675 25.793,232.571 C 24.784,234.849 20.969,250.17 28.932,252.686 C 35.495,255.921 40.645,258.815 45.419,262.525 L 49.322,269.63 C 55.926,273.53 63.046,273.568 61.032,302.453 C 60.126,306.094 49.949,319.049 49.096,322.265 C 48.195,324.106 47.42,326.309 46.784,328.783 C 46.567,329.039 46.356,329.3 46.157,329.568 C 44.486,331.704 42.373,334.895 41.196,340.427 C 40.027,344.187 39.875,348.863 40.079,353.918 C 40.372,356.339 40.733,359.333 42.705,362.903 C 43.188,365.159 43.769,366.545 44.447,366.991 C 45.718,368.243 46.356,369.38 45.603,370.279 C 44.803,370.207 44.05,370.295 43.521,371.135 C 42.598,371.07 41.928,371.398 41.427,372.008 C 40.143,371.846 39.491,372.066 39.579,373.051 C 36.094,372.19 34.02,369.9 33.083,365.585 C 33.242,362.914 34.34,361.592 35.381,360.87 C 39.765,355.736 37.624,350.721 35.838,347.575 C 41.18,339.732 29.26,326.892 35.697,322.322 C 40.258,311.041 33.674,295.229 29.873,291.262 C 30.232,282.892 35.409,277.07 30.06,267.582 C 27.164,264.317 26.865,261.583 26.923,258.982 C 26.118,254.602 24.148,251.357 21.743,249.497 C 20.151,248.626 18.533,247.884 16.806,247.581 C 12.411,247.238 9.86,248.147 7.67,249.298 C 9.691,249.442 12.28,248.794 14.187,249.981 C 11.345,251.152 8.718,250.864 7.028,250.199 C 7.965,250.67 7.596,251.274 12.405,251.394 C 12.925,251.424 13.011,251.884 12.548,252.903 C 11.002,255.363 9.075,259.226 8.53,263.625 C 8.131,265.157 8.234,267.368 9.145,269.413 C 6.964,272.712 6.528,275.555 6.089,278.316 C 5.753,280.519 5.842,283.201 7.361,287.454 C 6.554,289.357 6.734,298.724 8.884,304.89 C 8.221,303.012 3.641,312.022 6.279,320.242 C 4.551,322.713 2.649,337.21 4.57,341.949 C 4.818,345.32 5.589,348.17 7.407,353.372 C 7.945,355.561 9.209,359.324 11.704,365.205 C 13.314,369.334 15.872,374.024 20.13,377.757 C 24.777,381.082 29.682,383.514 35.302,383.648 C 37.45,383.631 39.595,383.473 41.681,382.723 C 42.213,383.379 44.061,383.888 44.611,383.287 C 45.407,383.947 46.208,384.578 46.908,384.256 C 47.684,384.248 48.072,383.804 48.242,383.131 L 54.401,387.923 C 58.267,391.581 62.773,393.621 66.726,395.107 C 72.135,398.26 78.031,399.783 84.374,399.829 C 95.875,399.128 105.135,395.809 114.932,390.217 C 121.812,385.036 124.69,382.778 126.377,380.353 C 130.917,375.145 131.87,373.563 135.341,367.091 C 136.618,365.289 139.553,357.648 140.282,350.195 C 141.232,342.143 138.166,336.501 136.431,332.582 C 130.767,323.685 128.828,323.201 127.534,318.833 C 125.925,313.417 132.711,306.056 133.519,303.467 C 133.197,299.751 129.93,301.285 124.323,299.991 C 122.358,296.835 126.076,294.411 123.246,293.739 C 121.559,292.99 119.777,293.992 118.498,293.739 C 119.35,293.284 121.056,292.451 122.193,291.38 C 122.424,289.555 120.081,289.726 118.719,288.99 C 116.134,287.262 116.714,283.41 116.046,282.32 C 114.919,279.878 113.555,278.854 112.169,278.598 C 109.601,278.467 105.363,279.757 103.819,280.878 C 101.059,278.454 97.939,266.644 100.764,265.754 L 100.838,265.036 C 101.43,264.746 102.027,264.417 102.633,264.042 C 107.755,260.936 111.054,257.608 113.575,254.513 C 117.801,248.92 122.426,244.251 126.794,240.291 C 134.542,233.006 146.941,226.654 159.392,221.237 C 174.08,246.544 186.309,272.794 191.516,282.204 L 191.341,282.36 C 191.446,282.546 191.55,282.724 191.652,282.887 C 194.651,284.918 200.873,286.102 206.417,287.584 L 217.7,292.365 L 220.719,292.62 L 230.8,296.846 C 236.453,300.043 241.406,303.561 244.596,307.885 C 245.422,308.038 245.891,306.427 245.943,305.526 C 245.611,303.809 244.753,302.423 243.928,301.005 C 240.984,297.795 237.867,295.274 235.595,293.195 C 235.36,290.927 234.035,289.748 233.594,288.7 C 237.153,288.218 240.736,288.317 244.331,288.747 C 245.813,288.563 245.868,287.397 244.183,286.102 C 239.725,284.498 235.236,284.28 229.637,285.563 C 228.653,285.611 227.519,285.563 226.721,284.576 C 228.766,282.341 231.377,280.549 235.201,278.225 C 237.032,277.291 237.283,276.547 236.479,276.196 C 236.374,276.002 233.929,275.652 231.712,276.524 C 228.751,278.546 225.894,280.617 223.182,282.748 C 220.174,279.664 214.06,275.225 211.632,274.601 C 210.308,274.428 208.913,274.354 207.556,274.326 C 205.892,274.293 204.29,274.333 202.958,274.359 C 202.471,274.032 202.11,272.95 202.053,272.817 C 200.832,272.945 190.741,245.186 181.752,219.147 C 206.598,220.83 232.28,224.568 258.746,230.08 C 259.936,231.548 261.098,233.005 262.386,234.298 C 269.303,241.242 277.858,252.197 280.353,253.039 L 296.362,258.148 C 301.203,260.259 305.587,262.729 309.373,265.689 C 311.254,264.9 310.607,262.203 308.771,260.615 C 305.876,257.706 301.576,255.18 296.084,253.473 C 298.713,253.22 304.053,254.279 316.114,258.632 C 317.451,258.24 317.403,257.476 316.911,256.591 C 314.858,253.62 311.828,251.328 306.834,250.387 C 310.181,249.896 310.007,248.92 309.833,247.956 C 308.61,246.958 306.076,246.331 300.198,246.616 C 297.873,246.462 295.513,246.988 293.035,246.531 C 289.6,245.389 287.321,243.723 284.677,242.113 C 282.535,240.349 281.286,238.077 283.317,235.968 C 285.514,234.058 290.621,235.606 301.103,239.322 C 303.815,240.154 305.774,239.914 306.458,237.828 C 306.45,235.966 304.371,234.829 300.607,233.374 C 295.1,231.577 289.24,231.822 284.619,228.567 C 277.171,222.306 270.385,217.087 266.438,216.539 C 264.611,216.138 262.147,215.434 257.268,215.423 L 257.268,215.527 C 255.7,214.699 254.746,214.345 253.361,213.871 C 227.282,206.614 201.342,197.502 175.722,188.102 L 175.648,188.261 C 173.705,187.705 171.711,187.61 169.657,188.04 C 149.931,194.522 136.593,201.241 121.457,210.762 C 118.696,212.456 116.012,214.085 113.404,215.599 C 118.307,204.479 120.846,190.867 124.909,174.467 L 133.738,136.945 C 134.048,131.238 134.056,125.713 133.645,120.433 C 134.44,117.434 135.421,114.438 136.527,111.441 C 139.332,105.657 143.228,100.188 149.638,95.438 L 166.02,101.99 C 178.852,105.527 190.767,109.463 201.492,115.68 C 212.049,117.676 219.611,119.532 226.359,115.486 C 234.064,112.397 237.822,107.388 237.344,99.68 C 235.459,82.298 227.408,77.544 219.06,65.594 C 225.881,65.585 243.764,55.2 271.851,55.536 C 287.699,57.273 299.414,54.765 306.55,50.138 C 310.96,41.591 310.024,33.046 309.054,24.494 C 302.952,14.086 292.948,7.578 280.72,3.297 L 216.329,3.101 C 185.374,4.086 140.915,0.094 110.464,2.092 Z" stroke-linejoin="miter" stroke-linecap="round" stroke-width="0.383" stroke="none" fill="#283845" marker-start="none" marker-end="none" stroke-miterlimit="79.8403193612775"/>
   </g>
   <g id="headphones">
    <path d="M 74.603,323.591 C 72.814,331.293 77.69,339.612 85.485,342.161 C 93.28,344.709 101.058,340.526 102.847,332.825 C 104.635,325.123 99.76,316.804 91.965,314.255 C 84.17,311.707 76.391,315.89 74.603,323.591 Z" stroke-linejoin="miter" stroke="none" stroke-width="0.04" fill="#fe3483" marker-start="none" marker-end="none" stroke-miterlimit="79.8403193612775"/>
    <path d="M 82.994,312.478 C 69.139,278.604 77.197,267.361 95.68,269.861" fill="none" stroke="#fe3483" stroke-width="2.047" stroke-linejoin="round" stroke-linecap="round" stroke-miterlimit="79.8403193612775"/>
    <path d="M 109.74,221.269 C 117.662,183.883 73.245,157.965 110.969,145.14 C 126.316,139.923 123.316,120.823 115.224,119.087" fill="none" stroke="#fe3483" stroke-width="2.047" stroke-linejoin="round" stroke-linecap="round" stroke-miterlimit="79.8403193612775"/>
    <path d="M 89.562,341.368 C 93.999,358.139 93.576,377.427 88.335,396.623 C 91.212,396.202 91.855,396.063 95.548,395.24 C 99.744,366.607 98.528,351.53 96.62,338.604 L 89.562,341.368 Z" stroke="none" fill="#fe3483" stroke-width="0.041" stroke-linejoin="miter" marker-start="none" marker-end="none" stroke-miterlimit="79.8403193612775"/>
    <path d="M 100.403,130.089 L 85.377,94.859 C 85.061,94.123 85.39,93.231 86.107,92.872 L 105.076,83.419 C 105.794,83.06 106.635,83.37 106.951,84.107 L 121.975,119.337 C 122.291,120.074 121.963,120.966 121.245,121.325 L 102.277,130.776 C 101.56,131.136 100.719,130.825 100.403,130.089 Z" stroke="none" fill="#fe3483" stroke-width="0.826" stroke-linejoin="miter" stroke-linecap="round" marker-start="none" marker-end="none" stroke-miterlimit="79.8403193612775"/>
    <path d="M 101.379,125.988 L 88.652,96.157 L 105.636,87.696 L 118.361,117.528 L 101.379,125.988 Z" fill="#283845" stroke="none" stroke-width="0.647" stroke-linejoin="miter" stroke-linecap="round" marker-start="none" marker-end="none" stroke-miterlimit="79.8403193612775"/>
   </g>
  </g>
 </g>
</svg>
