<?xml version="1.0" standalone="no"?>
<!DOCTYPE svg PUBLIC "-//W3C//DTD SVG 1.1//EN" "http://www.w3.org/Graphics/SVG/1.1/DTD/svg11.dtd">
<!--Generator: Xara Designer (www.xara.com), SVG filter version: 4.0.0.1-->
<svg stroke-width="0.501" stroke-linejoin="bevel" fill-rule="evenodd" xmlns:xlink="http://www.w3.org/1999/xlink" xmlns="http://www.w3.org/2000/svg" version="1.1" overflow="visible" width="318.75pt" height="401.25pt" viewBox="0 0 318.75 401.25">
 <defs>
  <marker id="DefaultArrow2" markerUnits="strokeWidth" viewBox="0 0 1 1" markerWidth="1" markerHeight="1" overflow="visible" orient="auto">
   <!-- REF_ARROW_STRAIGHT (-2) -->
   <g transform="scale(0.0092592592)">
    <!-- 1/108 -->
    <path d="M -9 54 L -9 -54 L 117 0 z"/>
   </g>
  </marker>
  <marker id="DefaultArrow3" markerUnits="strokeWidth" viewBox="0 0 1 1" markerWidth="1" markerHeight="1" overflow="visible" orient="auto">
   <!-- REF_ARROW_ANGLED -->
   <g transform="scale(0.0092592592)">
    <path d="M -27 54 L -9 0 L -27 -54 L 135 0 z"/>
   </g>
  </marker>
  <marker id="DefaultArrow4" markerUnits="strokeWidth" viewBox="0 0 1 1" markerWidth="1" markerHeight="1" overflow="visible" orient="auto">
   <!-- REF_ARROW_ROUNDED -->
   <g transform="scale(0.0092592592)">
    <path d="M -9,0 L -9,-45 C -9,-51.708 2.808,-56.580 9,-54 L 117,-9 C 120.916,-7.369 126.000,-4.242 126,0 C 126,4.242 120.916,7.369 117,9 L 9,54 C 2.808,56.580 -9,51.708 -9,45 z"/>
   </g>
  </marker>
  <marker id="DefaultArrow5" markerUnits="strokeWidth" viewBox="0 0 1 1" markerWidth="1" markerHeight="1" overflow="visible" orient="auto">
   <!-- REF_ARROW_SPOT -->
   <g transform="scale(0.0092592592)">
    <path d="M -54, 0 C -54,29.807 -29.807,54 0,54 C 29.807,54 54,29.807 54,0 C 54,-29.807 29.807,-54 0,-54 C -29.807,-54 -54,-29.807 -54,0 z"/>
   </g>
  </marker>
  <marker id="DefaultArrow6" markerUnits="strokeWidth" viewBox="0 0 1 1" markerWidth="1" markerHeight="1" overflow="visible" orient="auto">
   <!-- REF_ARROW_DIAMOND -->
   <g transform="scale(0.0092592592)">
    <path d="M -63,0 L 0,63 L 63,0 L 0,-63 z"/>
   </g>
  </marker>
  <marker id="DefaultArrow7" markerUnits="strokeWidth" viewBox="0 0 1 1" markerWidth="1" markerHeight="1" overflow="visible" orient="auto">
   <!-- REF_ARROW_FEATHER -->
   <g transform="scale(0.0092592592)">
    <path d="M 18,-54 L 108,-54 L 63,0 L 108,54 L 18, 54 L -36,0 z"/>
   </g>
  </marker>
  <marker id="DefaultArrow8" markerUnits="strokeWidth" viewBox="0 0 1 1" markerWidth="1" markerHeight="1" overflow="visible" orient="auto">
   <!-- REF_ARROW_FEATHER2 -->
   <g transform="scale(0.0092592592)">
    <path d="M -36,0 L 18,-54 L 54,-54 L 18,-18 L 27,-18 L 63,-54 L 99,-54 L 63,-18 L 72,-18 L 108,-54 L 144,-54 L 90,0 L 144,54 L 108,54 L 72,18 L 63,18 L 99,54 L 63,54 L 27,18 L 18,18 L 54,54 L 18,54 z"/>
   </g>
  </marker>
  <marker id="DefaultArrow9" markerUnits="strokeWidth" viewBox="0 0 1 1" markerWidth="1" markerHeight="1" overflow="visible" orient="auto">
   <!-- REF_ARROW_HOLLOWDIAMOND -->
   <g transform="scale(0.0092592592)">
    <path d="M 0,45 L -45,0 L 0, -45 L 45, 0 z M 0, 63 L-63, 0 L 0, -63 L 63, 0 z"/>
   </g>
  </marker>
  <filter id="StainedFilter">
   <feBlend mode="multiply" in2="BackgroundImage" in="SourceGraphic" result="blend"/>
   <feComposite in="blend" in2="SourceAlpha" operator="in" result="comp"/>
  </filter>
  <filter id="BleachFilter">
   <feBlend mode="screen" in2="BackgroundImage" in="SourceGraphic" result="blend"/>
   <feComposite in="blend" in2="SourceAlpha" operator="in" result="comp"/>
  </filter>
  <filter id="InvertTransparencyBitmapFilter">
   <feComponentTransfer>
    <feFuncR type="gamma" amplitude="1.055" exponent=".416666666" offset="-0.055"/>
    <feFuncG type="gamma" amplitude="1.055" exponent=".416666666" offset="-0.055"/>
    <feFuncB type="gamma" amplitude="1.055" exponent=".416666666" offset="-0.055"/>
   </feComponentTransfer>
   <feComponentTransfer>
    <feFuncR type="linear" slope="-1" intercept="1"/>
    <feFuncG type="linear" slope="-1" intercept="1"/>
    <feFuncB type="linear" slope="-1" intercept="1"/>
    <feFuncA type="linear" slope="1" intercept="0"/>
   </feComponentTransfer>
   <feComponentTransfer>
    <feFuncR type="gamma" amplitude="1" exponent="2.4" offset="0"/>
    <feFuncG type="gamma" amplitude="1" exponent="2.4" offset="0"/>
    <feFuncB type="gamma" amplitude="1" exponent="2.4" offset="0"/>
   </feComponentTransfer>
  </filter>
 </defs>
 <g id="Document" fill="none" stroke="black" font-family="Times New Roman" font-size="16" transform="scale(1 -1)">
  <g id="Spread" transform="translate(0 -401.25)">
   <g id="logo_kid">
    <path d="M 110.449,2.068 C 87.473,3.034 79.391,7.892 71.358,15.414 C 65.999,20.409 63.17,29.569 62.877,41.247 C 63.203,51.821 63.557,61.479 64.418,70.546 C 65.458,77.347 65.754,84.4 65.448,91.657 L 64.741,91.462 L 61.915,119.114 C 49.158,118.307 50.142,127.779 49.028,128.228 C 50.379,135.247 24.137,127.022 22.946,135.143 C 13.622,134.919 13.257,165.883 11.638,174.734 C 12.252,218.71 11.689,206.385 16.642,217.909 C 13.427,225.829 27.769,220.651 25.778,232.547 C 24.769,234.825 20.954,250.146 28.917,252.662 C 35.48,255.897 40.63,258.791 45.404,262.501 L 49.307,269.606 C 55.911,273.506 63.031,273.544 61.017,302.429 C 60.111,306.07 49.934,319.025 49.081,322.241 C 48.18,324.082 47.405,326.285 46.769,328.759 C 46.552,329.015 46.341,329.276 46.142,329.544 C 44.471,331.68 42.358,334.871 41.181,340.403 C 40.012,344.163 39.86,348.839 40.064,353.894 C 40.357,356.315 40.718,359.309 42.69,362.879 C 43.173,365.135 43.754,366.521 44.432,366.967 C 45.703,368.219 46.341,369.356 45.588,370.255 C 44.788,370.183 44.035,370.271 43.506,371.111 C 42.583,371.046 41.913,371.374 41.412,371.984 C 40.128,371.822 39.476,372.042 39.564,373.027 C 36.079,372.166 34.005,369.876 33.068,365.561 C 33.227,362.89 34.325,361.568 35.366,360.846 C 39.75,355.712 37.609,350.697 35.823,347.551 C 41.165,339.708 29.245,326.868 35.682,322.298 C 40.243,311.017 33.659,295.205 29.858,291.238 C 30.217,282.868 35.394,277.046 30.045,267.558 C 27.149,264.293 26.85,261.559 26.908,258.958 C 26.103,254.578 24.133,251.333 21.728,249.473 C 20.136,248.602 18.518,247.86 16.791,247.557 C 12.396,247.214 9.845,248.123 7.655,249.274 C 9.676,249.418 12.265,248.77 14.172,249.957 C 11.33,251.128 8.703,250.84 7.013,250.175 C 7.95,250.646 7.581,251.25 12.39,251.37 C 12.91,251.4 12.996,251.86 12.533,252.879 C 10.987,255.339 9.06,259.202 8.515,263.601 C 8.116,265.133 8.219,267.344 9.13,269.389 C 6.949,272.688 6.513,275.531 6.074,278.292 C 5.738,280.495 5.827,283.177 7.346,287.43 C 6.539,289.333 6.719,298.7 8.869,304.866 C 8.206,302.988 3.626,311.998 6.264,320.218 C 4.536,322.689 2.634,337.186 4.555,341.925 C 4.803,345.296 5.574,348.146 7.392,353.348 C 7.93,355.537 9.194,359.3 11.689,365.181 C 13.299,369.31 15.857,374 20.115,377.733 C 24.762,381.058 29.667,383.49 35.287,383.624 C 37.435,383.607 39.58,383.449 41.666,382.699 C 42.198,383.355 44.046,383.864 44.596,383.263 C 45.392,383.923 46.193,384.554 46.893,384.232 C 47.669,384.224 48.057,383.78 48.227,383.107 L 54.386,387.899 C 58.252,391.557 62.758,393.597 66.711,395.083 C 72.12,398.236 78.016,399.759 84.359,399.805 C 95.86,399.104 105.12,395.785 114.917,390.193 C 121.797,385.012 124.675,382.754 126.362,380.329 C 130.902,375.121 131.855,373.539 135.326,367.067 C 136.603,365.265 139.538,357.624 140.267,350.171 C 141.217,342.119 138.151,336.477 136.416,332.558 C 130.752,323.661 128.813,323.177 127.519,318.809 C 125.91,313.393 132.696,306.032 133.504,303.443 C 133.182,299.727 129.915,301.261 124.308,299.967 C 122.343,296.811 126.061,294.387 123.231,293.715 C 121.544,292.966 119.762,293.968 118.483,293.715 C 119.335,293.26 121.041,292.427 122.178,291.356 C 122.409,289.531 120.066,289.702 118.704,288.966 C 116.119,287.238 116.699,283.386 116.031,282.296 C 114.904,279.854 113.54,278.83 112.154,278.574 C 109.586,278.443 105.348,279.733 103.804,280.854 C 101.044,278.43 97.924,266.62 100.749,265.73 L 100.823,265.012 C 101.415,264.722 102.012,264.393 102.618,264.018 C 107.74,260.912 111.039,257.584 113.56,254.489 C 117.786,248.896 122.411,244.227 126.779,240.267 C 134.527,232.982 146.926,226.63 159.377,221.213 C 174.065,246.52 186.294,272.77 191.501,282.18 L 191.326,282.336 C 191.431,282.522 191.535,282.7 191.637,282.863 C 194.636,284.894 200.858,286.078 206.402,287.56 L 217.685,292.341 L 220.704,292.596 L 230.785,296.822 C 236.438,300.019 241.391,303.537 244.581,307.861 C 245.407,308.014 245.876,306.403 245.928,305.502 C 245.596,303.785 244.738,302.399 243.913,300.981 C 240.969,297.771 237.852,295.25 235.58,293.171 C 235.345,290.903 234.02,289.724 233.579,288.676 C 237.138,288.194 240.721,288.293 244.316,288.723 C 245.798,288.539 245.853,287.373 244.168,286.078 C 239.71,284.474 235.221,284.256 229.622,285.539 C 228.638,285.587 227.504,285.539 226.706,284.552 C 228.751,282.317 231.362,280.525 235.186,278.201 C 237.017,277.267 237.268,276.523 236.464,276.172 C 236.359,275.978 233.914,275.628 231.697,276.5 C 228.736,278.522 225.879,280.593 223.167,282.724 C 220.159,279.64 214.045,275.201 211.617,274.577 C 210.293,274.404 208.898,274.33 207.541,274.302 C 205.877,274.269 204.275,274.309 202.943,274.335 C 202.456,274.008 202.095,272.926 202.038,272.793 C 200.817,272.921 190.726,245.162 181.737,219.123 C 206.583,220.806 232.265,224.544 258.731,230.056 C 259.921,231.524 261.083,232.981 262.371,234.274 C 269.288,241.218 277.843,252.173 280.338,253.015 L 296.347,258.124 C 301.188,260.235 305.572,262.705 309.358,265.665 C 311.239,264.876 310.592,262.179 308.756,260.591 C 305.861,257.682 301.561,255.156 296.069,253.449 C 298.698,253.196 304.038,254.255 316.099,258.608 C 317.436,258.216 317.388,257.452 316.896,256.567 C 314.843,253.596 311.813,251.304 306.819,250.363 C 310.166,249.872 309.992,248.896 309.818,247.932 C 308.595,246.934 306.061,246.307 300.183,246.592 C 297.858,246.438 295.498,246.964 293.02,246.507 C 289.585,245.365 287.306,243.699 284.662,242.089 C 282.52,240.325 281.271,238.053 283.302,235.944 C 285.499,234.034 290.606,235.582 301.088,239.298 C 303.8,240.13 305.759,239.89 306.443,237.804 C 306.435,235.942 304.356,234.805 300.592,233.35 C 295.085,231.553 289.225,231.798 284.604,228.543 C 277.156,222.282 270.37,217.063 266.423,216.515 C 264.596,216.114 262.132,215.41 257.253,215.399 L 257.253,215.503 C 255.685,214.675 254.731,214.321 253.346,213.847 C 227.267,206.59 201.327,197.478 175.707,188.078 L 175.633,188.237 C 173.69,187.681 171.696,187.586 169.642,188.016 C 149.916,194.498 136.578,201.217 121.442,210.738 C 118.681,212.432 115.997,214.061 113.389,215.575 C 118.292,204.455 120.831,190.843 124.894,174.443 L 133.723,136.921 C 134.033,131.214 134.041,125.689 133.63,120.409 C 134.425,117.41 135.406,114.414 136.512,111.417 C 139.317,105.633 143.213,100.164 149.623,95.414 L 166.005,101.966 C 178.837,105.503 190.752,109.439 201.477,115.656 C 212.034,117.652 219.596,119.508 226.344,115.462 C 234.049,112.373 237.807,107.364 237.329,99.656 C 235.444,82.274 227.393,77.52 219.045,65.57 C 225.866,65.561 243.749,55.176 271.836,55.512 C 287.684,57.249 299.399,54.741 306.535,50.114 C 310.945,41.567 310.009,33.022 309.039,24.47 C 302.937,14.062 292.933,7.554 280.705,3.273 L 216.314,3.077 C 185.359,4.062 140.9,0.07 110.449,2.068 Z" fill="#e5e5e5" stroke-linejoin="miter" stroke-linecap="round" stroke-width="0.383" stroke="none" marker-start="none" marker-end="none" stroke-miterlimit="79.8403193612775"/>
   </g>
   <g id="headphones"/>
  </g>
 </g>
</svg>
